G04*
G04 #@! TF.GenerationSoftware,Altium Limited,Altium Designer,25.6.2 (33)*
G04*
G04 Layer_Color=16711935*
%FSLAX25Y25*%
%MOIN*%
G70*
G04*
G04 #@! TF.SameCoordinates,BD411D27-776A-4FB2-9261-914828140578*
G04*
G04*
G04 #@! TF.FilePolarity,Negative*
G04*
G01*
G75*
%ADD15C,0.06600*%
%ADD16C,0.13005*%
D15*
X239409Y11811D02*
D03*
X249410D02*
D03*
X229410D02*
D03*
X199724D02*
D03*
X219724D02*
D03*
X209724D02*
D03*
X101614D02*
D03*
X111614D02*
D03*
X91614D02*
D03*
X61929D02*
D03*
X81929D02*
D03*
X71929D02*
D03*
X209724Y452756D02*
D03*
X219724D02*
D03*
X199724D02*
D03*
X229410D02*
D03*
X249410D02*
D03*
X239409D02*
D03*
X71929D02*
D03*
X81929D02*
D03*
X61929D02*
D03*
X91614D02*
D03*
X111614D02*
D03*
X101614D02*
D03*
X38000Y246181D02*
D03*
Y236181D02*
D03*
Y226181D02*
D03*
Y216181D02*
D03*
Y206181D02*
D03*
Y196181D02*
D03*
Y186181D02*
D03*
Y176181D02*
D03*
Y166181D02*
D03*
Y156181D02*
D03*
Y146181D02*
D03*
Y136181D02*
D03*
Y126181D02*
D03*
Y116181D02*
D03*
Y106181D02*
D03*
Y96181D02*
D03*
Y86181D02*
D03*
Y76181D02*
D03*
Y66181D02*
D03*
Y56181D02*
D03*
X48000Y246181D02*
D03*
Y236181D02*
D03*
Y226181D02*
D03*
Y216181D02*
D03*
Y206181D02*
D03*
Y196181D02*
D03*
Y186181D02*
D03*
Y176181D02*
D03*
Y166181D02*
D03*
Y156181D02*
D03*
Y146181D02*
D03*
Y136181D02*
D03*
Y126181D02*
D03*
Y116181D02*
D03*
Y106181D02*
D03*
Y96181D02*
D03*
Y86181D02*
D03*
Y76181D02*
D03*
Y66181D02*
D03*
Y56181D02*
D03*
X38000Y408189D02*
D03*
Y398189D02*
D03*
Y388189D02*
D03*
Y378189D02*
D03*
Y368189D02*
D03*
Y358189D02*
D03*
Y348189D02*
D03*
Y338189D02*
D03*
Y328189D02*
D03*
Y318189D02*
D03*
Y308189D02*
D03*
Y298189D02*
D03*
Y288189D02*
D03*
Y278189D02*
D03*
Y268189D02*
D03*
X48000Y408189D02*
D03*
Y398189D02*
D03*
Y388189D02*
D03*
Y378189D02*
D03*
Y368189D02*
D03*
Y358189D02*
D03*
Y348189D02*
D03*
Y338189D02*
D03*
Y328189D02*
D03*
Y318189D02*
D03*
Y308189D02*
D03*
Y298189D02*
D03*
Y288189D02*
D03*
Y278189D02*
D03*
Y268189D02*
D03*
X276961Y408189D02*
D03*
Y398189D02*
D03*
Y388189D02*
D03*
Y378189D02*
D03*
Y368189D02*
D03*
Y358189D02*
D03*
Y348189D02*
D03*
Y338189D02*
D03*
Y328189D02*
D03*
Y318189D02*
D03*
Y308189D02*
D03*
Y298189D02*
D03*
Y288189D02*
D03*
Y278189D02*
D03*
Y268189D02*
D03*
X266961Y408189D02*
D03*
Y398189D02*
D03*
Y388189D02*
D03*
Y378189D02*
D03*
Y368189D02*
D03*
Y358189D02*
D03*
Y348189D02*
D03*
Y338189D02*
D03*
Y328189D02*
D03*
Y318189D02*
D03*
Y308189D02*
D03*
Y298189D02*
D03*
Y288189D02*
D03*
Y278189D02*
D03*
Y268189D02*
D03*
X276961Y246181D02*
D03*
Y236181D02*
D03*
Y226181D02*
D03*
Y216181D02*
D03*
Y206181D02*
D03*
Y196181D02*
D03*
Y186181D02*
D03*
Y176181D02*
D03*
Y166181D02*
D03*
Y156181D02*
D03*
Y146181D02*
D03*
Y136181D02*
D03*
Y126181D02*
D03*
Y116181D02*
D03*
Y106181D02*
D03*
Y96181D02*
D03*
Y86181D02*
D03*
Y76181D02*
D03*
Y66181D02*
D03*
Y56181D02*
D03*
X266961Y246181D02*
D03*
Y236181D02*
D03*
Y226181D02*
D03*
Y216181D02*
D03*
Y206181D02*
D03*
Y196181D02*
D03*
Y186181D02*
D03*
Y176181D02*
D03*
Y166181D02*
D03*
Y156181D02*
D03*
Y146181D02*
D03*
Y136181D02*
D03*
Y126181D02*
D03*
Y116181D02*
D03*
Y106181D02*
D03*
Y96181D02*
D03*
Y86181D02*
D03*
Y76181D02*
D03*
Y66181D02*
D03*
Y56181D02*
D03*
D16*
X15748Y15748D02*
D03*
X299213D02*
D03*
Y448819D02*
D03*
X15748D02*
D03*
M02*
