G04*
G04 #@! TF.GenerationSoftware,Altium Limited,Altium Designer,25.6.2 (33)*
G04*
G04 Layer_Color=32896*
%FSLAX25Y25*%
%MOIN*%
G70*
G04*
G04 #@! TF.SameCoordinates,BD411D27-776A-4FB2-9261-914828140578*
G04*
G04*
G04 #@! TF.FilePolarity,Positive*
G04*
G01*
G75*
%ADD12C,0.01000*%
D12*
X2000Y256181D02*
X34000D01*
Y250181D02*
Y256181D01*
Y250181D02*
X52000D01*
Y52181D02*
Y250181D01*
X34000Y52181D02*
X52000D01*
X34000Y46181D02*
Y52181D01*
X2000Y46181D02*
X34000D01*
X2000Y418189D02*
X34000D01*
Y412189D02*
Y418189D01*
Y412189D02*
X52000D01*
Y264189D02*
Y412189D01*
X34000Y264189D02*
X52000D01*
X34000Y258189D02*
Y264189D01*
X2000Y258189D02*
X34000D01*
X51498Y50432D02*
X47499Y44434D01*
Y50432D02*
X51498Y44434D01*
X45500D02*
X43500D01*
X44500D01*
Y50432D01*
X45500Y49432D01*
X36502Y44434D02*
X40501D01*
X36502Y48433D01*
Y49432D01*
X37502Y50432D01*
X39501D01*
X40501Y49432D01*
X46998Y419932D02*
X43000Y413934D01*
Y419932D02*
X46998Y413934D01*
X38001D02*
Y419932D01*
X41000Y416933D01*
X37002D01*
M02*
