G04*
G04 #@! TF.GenerationSoftware,Altium Limited,Altium Designer,25.6.2 (33)*
G04*
G04 Layer_Physical_Order=2*
G04 Layer_Color=16711680*
%FSLAX25Y25*%
%MOIN*%
G70*
G04*
G04 #@! TF.SameCoordinates,BD411D27-776A-4FB2-9261-914828140578*
G04*
G04*
G04 #@! TF.FilePolarity,Positive*
G04*
G01*
G75*
%ADD18C,0.06000*%
%ADD19C,0.12205*%
G36*
X312922Y2039D02*
X2039D01*
Y462528D01*
X312922D01*
Y2039D01*
D02*
G37*
%LPC*%
G36*
X299949Y456299D02*
X298476D01*
X297031Y456012D01*
X295669Y455448D01*
X294444Y454629D01*
X293402Y453587D01*
X292584Y452362D01*
X292020Y451001D01*
X291732Y449556D01*
Y448082D01*
X292020Y446637D01*
X292584Y445276D01*
X293402Y444051D01*
X294444Y443009D01*
X295669Y442190D01*
X297031Y441626D01*
X298476Y441339D01*
X299949D01*
X301395Y441626D01*
X302756Y442190D01*
X303981Y443009D01*
X305023Y444051D01*
X305842Y445276D01*
X306405Y446637D01*
X306693Y448082D01*
Y449556D01*
X306405Y451001D01*
X305842Y452362D01*
X305023Y453587D01*
X303981Y454629D01*
X302756Y455448D01*
X301395Y456012D01*
X299949Y456299D01*
D02*
G37*
G36*
X16485D02*
X15011D01*
X13566Y456012D01*
X12205Y455448D01*
X10980Y454629D01*
X9938Y453587D01*
X9119Y452362D01*
X8555Y451001D01*
X8268Y449556D01*
Y448082D01*
X8555Y446637D01*
X9119Y445276D01*
X9938Y444051D01*
X10980Y443009D01*
X12205Y442190D01*
X13566Y441626D01*
X15011Y441339D01*
X16485D01*
X17930Y441626D01*
X19291Y442190D01*
X20516Y443009D01*
X21558Y444051D01*
X22377Y445276D01*
X22941Y446637D01*
X23228Y448082D01*
Y449556D01*
X22941Y451001D01*
X22377Y452362D01*
X21558Y453587D01*
X20516Y454629D01*
X19291Y455448D01*
X17930Y456012D01*
X16485Y456299D01*
D02*
G37*
G36*
X277459Y411976D02*
X276462D01*
X275499Y411718D01*
X274635Y411220D01*
X273930Y410514D01*
X273431Y409651D01*
X273173Y408688D01*
Y407690D01*
X273431Y406727D01*
X273930Y405864D01*
X274635Y405158D01*
X275499Y404660D01*
X276462Y404402D01*
X277459D01*
X278422Y404660D01*
X279286Y405158D01*
X279991Y405864D01*
X280490Y406727D01*
X280748Y407690D01*
Y408688D01*
X280490Y409651D01*
X279991Y410514D01*
X279286Y411220D01*
X278422Y411718D01*
X277459Y411976D01*
D02*
G37*
G36*
X38499D02*
X37501D01*
X36538Y411718D01*
X35675Y411220D01*
X34969Y410514D01*
X34471Y409651D01*
X34213Y408688D01*
Y407690D01*
X34471Y406727D01*
X34969Y405864D01*
X35675Y405158D01*
X36538Y404660D01*
X37501Y404402D01*
X38499D01*
X39462Y404660D01*
X40325Y405158D01*
X41031Y405864D01*
X41529Y406727D01*
X41787Y407690D01*
Y408688D01*
X41529Y409651D01*
X41031Y410514D01*
X40325Y411220D01*
X39462Y411718D01*
X38499Y411976D01*
D02*
G37*
G36*
X277459Y401976D02*
X276462D01*
X275499Y401718D01*
X274635Y401220D01*
X273930Y400515D01*
X273431Y399651D01*
X273173Y398688D01*
Y397690D01*
X273431Y396727D01*
X273930Y395864D01*
X274635Y395158D01*
X275499Y394660D01*
X276462Y394402D01*
X277459D01*
X278422Y394660D01*
X279286Y395158D01*
X279991Y395864D01*
X280490Y396727D01*
X280748Y397690D01*
Y398688D01*
X280490Y399651D01*
X279991Y400515D01*
X279286Y401220D01*
X278422Y401718D01*
X277459Y401976D01*
D02*
G37*
G36*
X38499D02*
X37501D01*
X36538Y401718D01*
X35675Y401220D01*
X34969Y400515D01*
X34471Y399651D01*
X34213Y398688D01*
Y397690D01*
X34471Y396727D01*
X34969Y395864D01*
X35675Y395158D01*
X36538Y394660D01*
X37501Y394402D01*
X38499D01*
X39462Y394660D01*
X40325Y395158D01*
X41031Y395864D01*
X41529Y396727D01*
X41787Y397690D01*
Y398688D01*
X41529Y399651D01*
X41031Y400515D01*
X40325Y401220D01*
X39462Y401718D01*
X38499Y401976D01*
D02*
G37*
G36*
X277459Y391976D02*
X276462D01*
X275499Y391718D01*
X274635Y391220D01*
X273930Y390514D01*
X273431Y389651D01*
X273173Y388688D01*
Y387690D01*
X273431Y386727D01*
X273930Y385863D01*
X274635Y385158D01*
X275499Y384660D01*
X276462Y384402D01*
X277459D01*
X278422Y384660D01*
X279286Y385158D01*
X279991Y385863D01*
X280490Y386727D01*
X280748Y387690D01*
Y388688D01*
X280490Y389651D01*
X279991Y390514D01*
X279286Y391220D01*
X278422Y391718D01*
X277459Y391976D01*
D02*
G37*
G36*
X38499D02*
X37501D01*
X36538Y391718D01*
X35675Y391220D01*
X34969Y390514D01*
X34471Y389651D01*
X34213Y388688D01*
Y387690D01*
X34471Y386727D01*
X34969Y385863D01*
X35675Y385158D01*
X36538Y384660D01*
X37501Y384402D01*
X38499D01*
X39462Y384660D01*
X40325Y385158D01*
X41031Y385863D01*
X41529Y386727D01*
X41787Y387690D01*
Y388688D01*
X41529Y389651D01*
X41031Y390514D01*
X40325Y391220D01*
X39462Y391718D01*
X38499Y391976D01*
D02*
G37*
G36*
X277459Y381976D02*
X276462D01*
X275499Y381718D01*
X274635Y381220D01*
X273930Y380515D01*
X273431Y379651D01*
X273173Y378688D01*
Y377690D01*
X273431Y376727D01*
X273930Y375864D01*
X274635Y375158D01*
X275499Y374660D01*
X276462Y374402D01*
X277459D01*
X278422Y374660D01*
X279286Y375158D01*
X279991Y375864D01*
X280490Y376727D01*
X280748Y377690D01*
Y378688D01*
X280490Y379651D01*
X279991Y380515D01*
X279286Y381220D01*
X278422Y381718D01*
X277459Y381976D01*
D02*
G37*
G36*
X38499D02*
X37501D01*
X36538Y381718D01*
X35675Y381220D01*
X34969Y380515D01*
X34471Y379651D01*
X34213Y378688D01*
Y377690D01*
X34471Y376727D01*
X34969Y375864D01*
X35675Y375158D01*
X36538Y374660D01*
X37501Y374402D01*
X38499D01*
X39462Y374660D01*
X40325Y375158D01*
X41031Y375864D01*
X41529Y376727D01*
X41787Y377690D01*
Y378688D01*
X41529Y379651D01*
X41031Y380515D01*
X40325Y381220D01*
X39462Y381718D01*
X38499Y381976D01*
D02*
G37*
G36*
X277459Y371976D02*
X276462D01*
X275499Y371718D01*
X274635Y371220D01*
X273930Y370514D01*
X273431Y369651D01*
X273173Y368688D01*
Y367690D01*
X273431Y366727D01*
X273930Y365863D01*
X274635Y365158D01*
X275499Y364660D01*
X276462Y364402D01*
X277459D01*
X278422Y364660D01*
X279286Y365158D01*
X279991Y365863D01*
X280490Y366727D01*
X280748Y367690D01*
Y368688D01*
X280490Y369651D01*
X279991Y370514D01*
X279286Y371220D01*
X278422Y371718D01*
X277459Y371976D01*
D02*
G37*
G36*
X38499D02*
X37501D01*
X36538Y371718D01*
X35675Y371220D01*
X34969Y370514D01*
X34471Y369651D01*
X34213Y368688D01*
Y367690D01*
X34471Y366727D01*
X34969Y365863D01*
X35675Y365158D01*
X36538Y364660D01*
X37501Y364402D01*
X38499D01*
X39462Y364660D01*
X40325Y365158D01*
X41031Y365863D01*
X41529Y366727D01*
X41787Y367690D01*
Y368688D01*
X41529Y369651D01*
X41031Y370514D01*
X40325Y371220D01*
X39462Y371718D01*
X38499Y371976D01*
D02*
G37*
G36*
X277459Y361976D02*
X276462D01*
X275499Y361718D01*
X274635Y361220D01*
X273930Y360514D01*
X273431Y359651D01*
X273173Y358688D01*
Y357690D01*
X273431Y356727D01*
X273930Y355863D01*
X274635Y355158D01*
X275499Y354660D01*
X276462Y354402D01*
X277459D01*
X278422Y354660D01*
X279286Y355158D01*
X279991Y355863D01*
X280490Y356727D01*
X280748Y357690D01*
Y358688D01*
X280490Y359651D01*
X279991Y360514D01*
X279286Y361220D01*
X278422Y361718D01*
X277459Y361976D01*
D02*
G37*
G36*
X38499D02*
X37501D01*
X36538Y361718D01*
X35675Y361220D01*
X34969Y360514D01*
X34471Y359651D01*
X34213Y358688D01*
Y357690D01*
X34471Y356727D01*
X34969Y355863D01*
X35675Y355158D01*
X36538Y354660D01*
X37501Y354402D01*
X38499D01*
X39462Y354660D01*
X40325Y355158D01*
X41031Y355863D01*
X41529Y356727D01*
X41787Y357690D01*
Y358688D01*
X41529Y359651D01*
X41031Y360514D01*
X40325Y361220D01*
X39462Y361718D01*
X38499Y361976D01*
D02*
G37*
G36*
X277459Y351976D02*
X276462D01*
X275499Y351718D01*
X274635Y351220D01*
X273930Y350515D01*
X273431Y349651D01*
X273173Y348688D01*
Y347690D01*
X273431Y346727D01*
X273930Y345864D01*
X274635Y345158D01*
X275499Y344660D01*
X276462Y344402D01*
X277459D01*
X278422Y344660D01*
X279286Y345158D01*
X279991Y345864D01*
X280490Y346727D01*
X280748Y347690D01*
Y348688D01*
X280490Y349651D01*
X279991Y350515D01*
X279286Y351220D01*
X278422Y351718D01*
X277459Y351976D01*
D02*
G37*
G36*
X38499D02*
X37501D01*
X36538Y351718D01*
X35675Y351220D01*
X34969Y350515D01*
X34471Y349651D01*
X34213Y348688D01*
Y347690D01*
X34471Y346727D01*
X34969Y345864D01*
X35675Y345158D01*
X36538Y344660D01*
X37501Y344402D01*
X38499D01*
X39462Y344660D01*
X40325Y345158D01*
X41031Y345864D01*
X41529Y346727D01*
X41787Y347690D01*
Y348688D01*
X41529Y349651D01*
X41031Y350515D01*
X40325Y351220D01*
X39462Y351718D01*
X38499Y351976D01*
D02*
G37*
G36*
X277459Y341976D02*
X276462D01*
X275499Y341718D01*
X274635Y341220D01*
X273930Y340514D01*
X273431Y339651D01*
X273173Y338688D01*
Y337690D01*
X273431Y336727D01*
X273930Y335863D01*
X274635Y335158D01*
X275499Y334660D01*
X276462Y334402D01*
X277459D01*
X278422Y334660D01*
X279286Y335158D01*
X279991Y335863D01*
X280490Y336727D01*
X280748Y337690D01*
Y338688D01*
X280490Y339651D01*
X279991Y340514D01*
X279286Y341220D01*
X278422Y341718D01*
X277459Y341976D01*
D02*
G37*
G36*
X38499D02*
X37501D01*
X36538Y341718D01*
X35675Y341220D01*
X34969Y340514D01*
X34471Y339651D01*
X34213Y338688D01*
Y337690D01*
X34471Y336727D01*
X34969Y335863D01*
X35675Y335158D01*
X36538Y334660D01*
X37501Y334402D01*
X38499D01*
X39462Y334660D01*
X40325Y335158D01*
X41031Y335863D01*
X41529Y336727D01*
X41787Y337690D01*
Y338688D01*
X41529Y339651D01*
X41031Y340514D01*
X40325Y341220D01*
X39462Y341718D01*
X38499Y341976D01*
D02*
G37*
G36*
X277459Y331976D02*
X276462D01*
X275499Y331718D01*
X274635Y331220D01*
X273930Y330515D01*
X273431Y329651D01*
X273173Y328688D01*
Y327690D01*
X273431Y326727D01*
X273930Y325864D01*
X274635Y325158D01*
X275499Y324660D01*
X276462Y324402D01*
X277459D01*
X278422Y324660D01*
X279286Y325158D01*
X279991Y325864D01*
X280490Y326727D01*
X280748Y327690D01*
Y328688D01*
X280490Y329651D01*
X279991Y330515D01*
X279286Y331220D01*
X278422Y331718D01*
X277459Y331976D01*
D02*
G37*
G36*
X38499D02*
X37501D01*
X36538Y331718D01*
X35675Y331220D01*
X34969Y330515D01*
X34471Y329651D01*
X34213Y328688D01*
Y327690D01*
X34471Y326727D01*
X34969Y325864D01*
X35675Y325158D01*
X36538Y324660D01*
X37501Y324402D01*
X38499D01*
X39462Y324660D01*
X40325Y325158D01*
X41031Y325864D01*
X41529Y326727D01*
X41787Y327690D01*
Y328688D01*
X41529Y329651D01*
X41031Y330515D01*
X40325Y331220D01*
X39462Y331718D01*
X38499Y331976D01*
D02*
G37*
G36*
X277459Y321976D02*
X276462D01*
X275499Y321718D01*
X274635Y321220D01*
X273930Y320514D01*
X273431Y319651D01*
X273173Y318688D01*
Y317690D01*
X273431Y316727D01*
X273930Y315863D01*
X274635Y315158D01*
X275499Y314660D01*
X276462Y314402D01*
X277459D01*
X278422Y314660D01*
X279286Y315158D01*
X279991Y315863D01*
X280490Y316727D01*
X280748Y317690D01*
Y318688D01*
X280490Y319651D01*
X279991Y320514D01*
X279286Y321220D01*
X278422Y321718D01*
X277459Y321976D01*
D02*
G37*
G36*
X38499D02*
X37501D01*
X36538Y321718D01*
X35675Y321220D01*
X34969Y320514D01*
X34471Y319651D01*
X34213Y318688D01*
Y317690D01*
X34471Y316727D01*
X34969Y315863D01*
X35675Y315158D01*
X36538Y314660D01*
X37501Y314402D01*
X38499D01*
X39462Y314660D01*
X40325Y315158D01*
X41031Y315863D01*
X41529Y316727D01*
X41787Y317690D01*
Y318688D01*
X41529Y319651D01*
X41031Y320514D01*
X40325Y321220D01*
X39462Y321718D01*
X38499Y321976D01*
D02*
G37*
G36*
X277459Y311976D02*
X276462D01*
X275499Y311718D01*
X274635Y311220D01*
X273930Y310514D01*
X273431Y309651D01*
X273173Y308688D01*
Y307690D01*
X273431Y306727D01*
X273930Y305863D01*
X274635Y305158D01*
X275499Y304660D01*
X276462Y304402D01*
X277459D01*
X278422Y304660D01*
X279286Y305158D01*
X279991Y305863D01*
X280490Y306727D01*
X280748Y307690D01*
Y308688D01*
X280490Y309651D01*
X279991Y310514D01*
X279286Y311220D01*
X278422Y311718D01*
X277459Y311976D01*
D02*
G37*
G36*
X38499D02*
X37501D01*
X36538Y311718D01*
X35675Y311220D01*
X34969Y310514D01*
X34471Y309651D01*
X34213Y308688D01*
Y307690D01*
X34471Y306727D01*
X34969Y305863D01*
X35675Y305158D01*
X36538Y304660D01*
X37501Y304402D01*
X38499D01*
X39462Y304660D01*
X40325Y305158D01*
X41031Y305863D01*
X41529Y306727D01*
X41787Y307690D01*
Y308688D01*
X41529Y309651D01*
X41031Y310514D01*
X40325Y311220D01*
X39462Y311718D01*
X38499Y311976D01*
D02*
G37*
G36*
X277459Y301976D02*
X276462D01*
X275499Y301718D01*
X274635Y301220D01*
X273930Y300515D01*
X273431Y299651D01*
X273173Y298688D01*
Y297690D01*
X273431Y296727D01*
X273930Y295864D01*
X274635Y295158D01*
X275499Y294660D01*
X276462Y294402D01*
X277459D01*
X278422Y294660D01*
X279286Y295158D01*
X279991Y295864D01*
X280490Y296727D01*
X280748Y297690D01*
Y298688D01*
X280490Y299651D01*
X279991Y300515D01*
X279286Y301220D01*
X278422Y301718D01*
X277459Y301976D01*
D02*
G37*
G36*
X38499D02*
X37501D01*
X36538Y301718D01*
X35675Y301220D01*
X34969Y300515D01*
X34471Y299651D01*
X34213Y298688D01*
Y297690D01*
X34471Y296727D01*
X34969Y295864D01*
X35675Y295158D01*
X36538Y294660D01*
X37501Y294402D01*
X38499D01*
X39462Y294660D01*
X40325Y295158D01*
X41031Y295864D01*
X41529Y296727D01*
X41787Y297690D01*
Y298688D01*
X41529Y299651D01*
X41031Y300515D01*
X40325Y301220D01*
X39462Y301718D01*
X38499Y301976D01*
D02*
G37*
G36*
X277459Y291976D02*
X276462D01*
X275499Y291718D01*
X274635Y291220D01*
X273930Y290514D01*
X273431Y289651D01*
X273173Y288688D01*
Y287690D01*
X273431Y286727D01*
X273930Y285863D01*
X274635Y285158D01*
X275499Y284660D01*
X276462Y284402D01*
X277459D01*
X278422Y284660D01*
X279286Y285158D01*
X279991Y285863D01*
X280490Y286727D01*
X280748Y287690D01*
Y288688D01*
X280490Y289651D01*
X279991Y290514D01*
X279286Y291220D01*
X278422Y291718D01*
X277459Y291976D01*
D02*
G37*
G36*
X38499D02*
X37501D01*
X36538Y291718D01*
X35675Y291220D01*
X34969Y290514D01*
X34471Y289651D01*
X34213Y288688D01*
Y287690D01*
X34471Y286727D01*
X34969Y285863D01*
X35675Y285158D01*
X36538Y284660D01*
X37501Y284402D01*
X38499D01*
X39462Y284660D01*
X40325Y285158D01*
X41031Y285863D01*
X41529Y286727D01*
X41787Y287690D01*
Y288688D01*
X41529Y289651D01*
X41031Y290514D01*
X40325Y291220D01*
X39462Y291718D01*
X38499Y291976D01*
D02*
G37*
G36*
X277459Y281976D02*
X276462D01*
X275499Y281718D01*
X274635Y281220D01*
X273930Y280515D01*
X273431Y279651D01*
X273173Y278688D01*
Y277690D01*
X273431Y276727D01*
X273930Y275864D01*
X274635Y275158D01*
X275499Y274660D01*
X276462Y274402D01*
X277459D01*
X278422Y274660D01*
X279286Y275158D01*
X279991Y275864D01*
X280490Y276727D01*
X280748Y277690D01*
Y278688D01*
X280490Y279651D01*
X279991Y280515D01*
X279286Y281220D01*
X278422Y281718D01*
X277459Y281976D01*
D02*
G37*
G36*
X38499D02*
X37501D01*
X36538Y281718D01*
X35675Y281220D01*
X34969Y280515D01*
X34471Y279651D01*
X34213Y278688D01*
Y277690D01*
X34471Y276727D01*
X34969Y275864D01*
X35675Y275158D01*
X36538Y274660D01*
X37501Y274402D01*
X38499D01*
X39462Y274660D01*
X40325Y275158D01*
X41031Y275864D01*
X41529Y276727D01*
X41787Y277690D01*
Y278688D01*
X41529Y279651D01*
X41031Y280515D01*
X40325Y281220D01*
X39462Y281718D01*
X38499Y281976D01*
D02*
G37*
G36*
X277459Y271976D02*
X276462D01*
X275499Y271718D01*
X274635Y271220D01*
X273930Y270514D01*
X273431Y269651D01*
X273173Y268688D01*
Y267690D01*
X273431Y266727D01*
X273930Y265863D01*
X274635Y265158D01*
X275499Y264660D01*
X276462Y264402D01*
X277459D01*
X278422Y264660D01*
X279286Y265158D01*
X279991Y265863D01*
X280490Y266727D01*
X280748Y267690D01*
Y268688D01*
X280490Y269651D01*
X279991Y270514D01*
X279286Y271220D01*
X278422Y271718D01*
X277459Y271976D01*
D02*
G37*
G36*
X38499D02*
X37501D01*
X36538Y271718D01*
X35675Y271220D01*
X34969Y270514D01*
X34471Y269651D01*
X34213Y268688D01*
Y267690D01*
X34471Y266727D01*
X34969Y265863D01*
X35675Y265158D01*
X36538Y264660D01*
X37501Y264402D01*
X38499D01*
X39462Y264660D01*
X40325Y265158D01*
X41031Y265863D01*
X41529Y266727D01*
X41787Y267690D01*
Y268688D01*
X41529Y269651D01*
X41031Y270514D01*
X40325Y271220D01*
X39462Y271718D01*
X38499Y271976D01*
D02*
G37*
G36*
X277459Y249969D02*
X276462D01*
X275499Y249710D01*
X274635Y249212D01*
X273930Y248507D01*
X273431Y247643D01*
X273173Y246680D01*
Y245683D01*
X273431Y244719D01*
X273930Y243856D01*
X274635Y243150D01*
X275499Y242652D01*
X276462Y242394D01*
X277459D01*
X278422Y242652D01*
X279286Y243150D01*
X279991Y243856D01*
X280490Y244719D01*
X280748Y245683D01*
Y246680D01*
X280490Y247643D01*
X279991Y248507D01*
X279286Y249212D01*
X278422Y249710D01*
X277459Y249969D01*
D02*
G37*
G36*
X38499D02*
X37501D01*
X36538Y249710D01*
X35675Y249212D01*
X34969Y248507D01*
X34471Y247643D01*
X34213Y246680D01*
Y245683D01*
X34471Y244719D01*
X34969Y243856D01*
X35675Y243150D01*
X36538Y242652D01*
X37501Y242394D01*
X38499D01*
X39462Y242652D01*
X40325Y243150D01*
X41031Y243856D01*
X41529Y244719D01*
X41787Y245683D01*
Y246680D01*
X41529Y247643D01*
X41031Y248507D01*
X40325Y249212D01*
X39462Y249710D01*
X38499Y249969D01*
D02*
G37*
G36*
X277459Y239968D02*
X276462D01*
X275499Y239710D01*
X274635Y239212D01*
X273930Y238507D01*
X273431Y237643D01*
X273173Y236680D01*
Y235683D01*
X273431Y234719D01*
X273930Y233856D01*
X274635Y233150D01*
X275499Y232652D01*
X276462Y232394D01*
X277459D01*
X278422Y232652D01*
X279286Y233150D01*
X279991Y233856D01*
X280490Y234719D01*
X280748Y235683D01*
Y236680D01*
X280490Y237643D01*
X279991Y238507D01*
X279286Y239212D01*
X278422Y239710D01*
X277459Y239968D01*
D02*
G37*
G36*
X38499D02*
X37501D01*
X36538Y239710D01*
X35675Y239212D01*
X34969Y238507D01*
X34471Y237643D01*
X34213Y236680D01*
Y235683D01*
X34471Y234719D01*
X34969Y233856D01*
X35675Y233150D01*
X36538Y232652D01*
X37501Y232394D01*
X38499D01*
X39462Y232652D01*
X40325Y233150D01*
X41031Y233856D01*
X41529Y234719D01*
X41787Y235683D01*
Y236680D01*
X41529Y237643D01*
X41031Y238507D01*
X40325Y239212D01*
X39462Y239710D01*
X38499Y239968D01*
D02*
G37*
G36*
X277459Y229969D02*
X276462D01*
X275499Y229710D01*
X274635Y229212D01*
X273930Y228507D01*
X273431Y227643D01*
X273173Y226680D01*
Y225682D01*
X273431Y224719D01*
X273930Y223856D01*
X274635Y223150D01*
X275499Y222652D01*
X276462Y222394D01*
X277459D01*
X278422Y222652D01*
X279286Y223150D01*
X279991Y223856D01*
X280490Y224719D01*
X280748Y225682D01*
Y226680D01*
X280490Y227643D01*
X279991Y228507D01*
X279286Y229212D01*
X278422Y229710D01*
X277459Y229969D01*
D02*
G37*
G36*
X38499D02*
X37501D01*
X36538Y229710D01*
X35675Y229212D01*
X34969Y228507D01*
X34471Y227643D01*
X34213Y226680D01*
Y225682D01*
X34471Y224719D01*
X34969Y223856D01*
X35675Y223150D01*
X36538Y222652D01*
X37501Y222394D01*
X38499D01*
X39462Y222652D01*
X40325Y223150D01*
X41031Y223856D01*
X41529Y224719D01*
X41787Y225682D01*
Y226680D01*
X41529Y227643D01*
X41031Y228507D01*
X40325Y229212D01*
X39462Y229710D01*
X38499Y229969D01*
D02*
G37*
G36*
X277459Y219969D02*
X276462D01*
X275499Y219710D01*
X274635Y219212D01*
X273930Y218507D01*
X273431Y217643D01*
X273173Y216680D01*
Y215683D01*
X273431Y214719D01*
X273930Y213856D01*
X274635Y213150D01*
X275499Y212652D01*
X276462Y212394D01*
X277459D01*
X278422Y212652D01*
X279286Y213150D01*
X279991Y213856D01*
X280490Y214719D01*
X280748Y215683D01*
Y216680D01*
X280490Y217643D01*
X279991Y218507D01*
X279286Y219212D01*
X278422Y219710D01*
X277459Y219969D01*
D02*
G37*
G36*
X38499D02*
X37501D01*
X36538Y219710D01*
X35675Y219212D01*
X34969Y218507D01*
X34471Y217643D01*
X34213Y216680D01*
Y215683D01*
X34471Y214719D01*
X34969Y213856D01*
X35675Y213150D01*
X36538Y212652D01*
X37501Y212394D01*
X38499D01*
X39462Y212652D01*
X40325Y213150D01*
X41031Y213856D01*
X41529Y214719D01*
X41787Y215683D01*
Y216680D01*
X41529Y217643D01*
X41031Y218507D01*
X40325Y219212D01*
X39462Y219710D01*
X38499Y219969D01*
D02*
G37*
G36*
X277459Y209968D02*
X276462D01*
X275499Y209710D01*
X274635Y209212D01*
X273930Y208507D01*
X273431Y207643D01*
X273173Y206680D01*
Y205682D01*
X273431Y204719D01*
X273930Y203856D01*
X274635Y203150D01*
X275499Y202652D01*
X276462Y202394D01*
X277459D01*
X278422Y202652D01*
X279286Y203150D01*
X279991Y203856D01*
X280490Y204719D01*
X280748Y205682D01*
Y206680D01*
X280490Y207643D01*
X279991Y208507D01*
X279286Y209212D01*
X278422Y209710D01*
X277459Y209968D01*
D02*
G37*
G36*
X38499D02*
X37501D01*
X36538Y209710D01*
X35675Y209212D01*
X34969Y208507D01*
X34471Y207643D01*
X34213Y206680D01*
Y205682D01*
X34471Y204719D01*
X34969Y203856D01*
X35675Y203150D01*
X36538Y202652D01*
X37501Y202394D01*
X38499D01*
X39462Y202652D01*
X40325Y203150D01*
X41031Y203856D01*
X41529Y204719D01*
X41787Y205682D01*
Y206680D01*
X41529Y207643D01*
X41031Y208507D01*
X40325Y209212D01*
X39462Y209710D01*
X38499Y209968D01*
D02*
G37*
G36*
X277459Y199969D02*
X276462D01*
X275499Y199710D01*
X274635Y199212D01*
X273930Y198507D01*
X273431Y197643D01*
X273173Y196680D01*
Y195683D01*
X273431Y194719D01*
X273930Y193856D01*
X274635Y193150D01*
X275499Y192652D01*
X276462Y192394D01*
X277459D01*
X278422Y192652D01*
X279286Y193150D01*
X279991Y193856D01*
X280490Y194719D01*
X280748Y195683D01*
Y196680D01*
X280490Y197643D01*
X279991Y198507D01*
X279286Y199212D01*
X278422Y199710D01*
X277459Y199969D01*
D02*
G37*
G36*
X38499D02*
X37501D01*
X36538Y199710D01*
X35675Y199212D01*
X34969Y198507D01*
X34471Y197643D01*
X34213Y196680D01*
Y195683D01*
X34471Y194719D01*
X34969Y193856D01*
X35675Y193150D01*
X36538Y192652D01*
X37501Y192394D01*
X38499D01*
X39462Y192652D01*
X40325Y193150D01*
X41031Y193856D01*
X41529Y194719D01*
X41787Y195683D01*
Y196680D01*
X41529Y197643D01*
X41031Y198507D01*
X40325Y199212D01*
X39462Y199710D01*
X38499Y199969D01*
D02*
G37*
G36*
X277459Y189969D02*
X276462D01*
X275499Y189710D01*
X274635Y189212D01*
X273930Y188507D01*
X273431Y187643D01*
X273173Y186680D01*
Y185682D01*
X273431Y184719D01*
X273930Y183856D01*
X274635Y183150D01*
X275499Y182652D01*
X276462Y182394D01*
X277459D01*
X278422Y182652D01*
X279286Y183150D01*
X279991Y183856D01*
X280490Y184719D01*
X280748Y185682D01*
Y186680D01*
X280490Y187643D01*
X279991Y188507D01*
X279286Y189212D01*
X278422Y189710D01*
X277459Y189969D01*
D02*
G37*
G36*
X38499D02*
X37501D01*
X36538Y189710D01*
X35675Y189212D01*
X34969Y188507D01*
X34471Y187643D01*
X34213Y186680D01*
Y185682D01*
X34471Y184719D01*
X34969Y183856D01*
X35675Y183150D01*
X36538Y182652D01*
X37501Y182394D01*
X38499D01*
X39462Y182652D01*
X40325Y183150D01*
X41031Y183856D01*
X41529Y184719D01*
X41787Y185682D01*
Y186680D01*
X41529Y187643D01*
X41031Y188507D01*
X40325Y189212D01*
X39462Y189710D01*
X38499Y189969D01*
D02*
G37*
G36*
X277459Y179969D02*
X276462D01*
X275499Y179710D01*
X274635Y179212D01*
X273930Y178507D01*
X273431Y177643D01*
X273173Y176680D01*
Y175682D01*
X273431Y174719D01*
X273930Y173856D01*
X274635Y173150D01*
X275499Y172652D01*
X276462Y172394D01*
X277459D01*
X278422Y172652D01*
X279286Y173150D01*
X279991Y173856D01*
X280490Y174719D01*
X280748Y175682D01*
Y176680D01*
X280490Y177643D01*
X279991Y178507D01*
X279286Y179212D01*
X278422Y179710D01*
X277459Y179969D01*
D02*
G37*
G36*
X38499D02*
X37501D01*
X36538Y179710D01*
X35675Y179212D01*
X34969Y178507D01*
X34471Y177643D01*
X34213Y176680D01*
Y175682D01*
X34471Y174719D01*
X34969Y173856D01*
X35675Y173150D01*
X36538Y172652D01*
X37501Y172394D01*
X38499D01*
X39462Y172652D01*
X40325Y173150D01*
X41031Y173856D01*
X41529Y174719D01*
X41787Y175682D01*
Y176680D01*
X41529Y177643D01*
X41031Y178507D01*
X40325Y179212D01*
X39462Y179710D01*
X38499Y179969D01*
D02*
G37*
G36*
X277459Y169968D02*
X276462D01*
X275499Y169710D01*
X274635Y169212D01*
X273930Y168507D01*
X273431Y167643D01*
X273173Y166680D01*
Y165682D01*
X273431Y164719D01*
X273930Y163856D01*
X274635Y163150D01*
X275499Y162652D01*
X276462Y162394D01*
X277459D01*
X278422Y162652D01*
X279286Y163150D01*
X279991Y163856D01*
X280490Y164719D01*
X280748Y165682D01*
Y166680D01*
X280490Y167643D01*
X279991Y168507D01*
X279286Y169212D01*
X278422Y169710D01*
X277459Y169968D01*
D02*
G37*
G36*
X38499D02*
X37501D01*
X36538Y169710D01*
X35675Y169212D01*
X34969Y168507D01*
X34471Y167643D01*
X34213Y166680D01*
Y165682D01*
X34471Y164719D01*
X34969Y163856D01*
X35675Y163150D01*
X36538Y162652D01*
X37501Y162394D01*
X38499D01*
X39462Y162652D01*
X40325Y163150D01*
X41031Y163856D01*
X41529Y164719D01*
X41787Y165682D01*
Y166680D01*
X41529Y167643D01*
X41031Y168507D01*
X40325Y169212D01*
X39462Y169710D01*
X38499Y169968D01*
D02*
G37*
G36*
X277459Y159968D02*
X276462D01*
X275499Y159710D01*
X274635Y159212D01*
X273930Y158507D01*
X273431Y157643D01*
X273173Y156680D01*
Y155683D01*
X273431Y154719D01*
X273930Y153856D01*
X274635Y153150D01*
X275499Y152652D01*
X276462Y152394D01*
X277459D01*
X278422Y152652D01*
X279286Y153150D01*
X279991Y153856D01*
X280490Y154719D01*
X280748Y155683D01*
Y156680D01*
X280490Y157643D01*
X279991Y158507D01*
X279286Y159212D01*
X278422Y159710D01*
X277459Y159968D01*
D02*
G37*
G36*
X38499D02*
X37501D01*
X36538Y159710D01*
X35675Y159212D01*
X34969Y158507D01*
X34471Y157643D01*
X34213Y156680D01*
Y155683D01*
X34471Y154719D01*
X34969Y153856D01*
X35675Y153150D01*
X36538Y152652D01*
X37501Y152394D01*
X38499D01*
X39462Y152652D01*
X40325Y153150D01*
X41031Y153856D01*
X41529Y154719D01*
X41787Y155683D01*
Y156680D01*
X41529Y157643D01*
X41031Y158507D01*
X40325Y159212D01*
X39462Y159710D01*
X38499Y159968D01*
D02*
G37*
G36*
X277459Y149969D02*
X276462D01*
X275499Y149710D01*
X274635Y149212D01*
X273930Y148507D01*
X273431Y147643D01*
X273173Y146680D01*
Y145683D01*
X273431Y144719D01*
X273930Y143856D01*
X274635Y143150D01*
X275499Y142652D01*
X276462Y142394D01*
X277459D01*
X278422Y142652D01*
X279286Y143150D01*
X279991Y143856D01*
X280490Y144719D01*
X280748Y145683D01*
Y146680D01*
X280490Y147643D01*
X279991Y148507D01*
X279286Y149212D01*
X278422Y149710D01*
X277459Y149969D01*
D02*
G37*
G36*
X38499D02*
X37501D01*
X36538Y149710D01*
X35675Y149212D01*
X34969Y148507D01*
X34471Y147643D01*
X34213Y146680D01*
Y145683D01*
X34471Y144719D01*
X34969Y143856D01*
X35675Y143150D01*
X36538Y142652D01*
X37501Y142394D01*
X38499D01*
X39462Y142652D01*
X40325Y143150D01*
X41031Y143856D01*
X41529Y144719D01*
X41787Y145683D01*
Y146680D01*
X41529Y147643D01*
X41031Y148507D01*
X40325Y149212D01*
X39462Y149710D01*
X38499Y149969D01*
D02*
G37*
G36*
X277459Y139969D02*
X276462D01*
X275499Y139710D01*
X274635Y139212D01*
X273930Y138507D01*
X273431Y137643D01*
X273173Y136680D01*
Y135682D01*
X273431Y134719D01*
X273930Y133856D01*
X274635Y133150D01*
X275499Y132652D01*
X276462Y132394D01*
X277459D01*
X278422Y132652D01*
X279286Y133150D01*
X279991Y133856D01*
X280490Y134719D01*
X280748Y135682D01*
Y136680D01*
X280490Y137643D01*
X279991Y138507D01*
X279286Y139212D01*
X278422Y139710D01*
X277459Y139969D01*
D02*
G37*
G36*
X38499D02*
X37501D01*
X36538Y139710D01*
X35675Y139212D01*
X34969Y138507D01*
X34471Y137643D01*
X34213Y136680D01*
Y135682D01*
X34471Y134719D01*
X34969Y133856D01*
X35675Y133150D01*
X36538Y132652D01*
X37501Y132394D01*
X38499D01*
X39462Y132652D01*
X40325Y133150D01*
X41031Y133856D01*
X41529Y134719D01*
X41787Y135682D01*
Y136680D01*
X41529Y137643D01*
X41031Y138507D01*
X40325Y139212D01*
X39462Y139710D01*
X38499Y139969D01*
D02*
G37*
G36*
X277459Y129969D02*
X276462D01*
X275499Y129710D01*
X274635Y129212D01*
X273930Y128507D01*
X273431Y127643D01*
X273173Y126680D01*
Y125682D01*
X273431Y124719D01*
X273930Y123856D01*
X274635Y123150D01*
X275499Y122652D01*
X276462Y122394D01*
X277459D01*
X278422Y122652D01*
X279286Y123150D01*
X279991Y123856D01*
X280490Y124719D01*
X280748Y125682D01*
Y126680D01*
X280490Y127643D01*
X279991Y128507D01*
X279286Y129212D01*
X278422Y129710D01*
X277459Y129969D01*
D02*
G37*
G36*
X38499D02*
X37501D01*
X36538Y129710D01*
X35675Y129212D01*
X34969Y128507D01*
X34471Y127643D01*
X34213Y126680D01*
Y125682D01*
X34471Y124719D01*
X34969Y123856D01*
X35675Y123150D01*
X36538Y122652D01*
X37501Y122394D01*
X38499D01*
X39462Y122652D01*
X40325Y123150D01*
X41031Y123856D01*
X41529Y124719D01*
X41787Y125682D01*
Y126680D01*
X41529Y127643D01*
X41031Y128507D01*
X40325Y129212D01*
X39462Y129710D01*
X38499Y129969D01*
D02*
G37*
G36*
X277459Y119968D02*
X276462D01*
X275499Y119710D01*
X274635Y119212D01*
X273930Y118507D01*
X273431Y117643D01*
X273173Y116680D01*
Y115682D01*
X273431Y114719D01*
X273930Y113856D01*
X274635Y113150D01*
X275499Y112652D01*
X276462Y112394D01*
X277459D01*
X278422Y112652D01*
X279286Y113150D01*
X279991Y113856D01*
X280490Y114719D01*
X280748Y115682D01*
Y116680D01*
X280490Y117643D01*
X279991Y118507D01*
X279286Y119212D01*
X278422Y119710D01*
X277459Y119968D01*
D02*
G37*
G36*
X38499D02*
X37501D01*
X36538Y119710D01*
X35675Y119212D01*
X34969Y118507D01*
X34471Y117643D01*
X34213Y116680D01*
Y115682D01*
X34471Y114719D01*
X34969Y113856D01*
X35675Y113150D01*
X36538Y112652D01*
X37501Y112394D01*
X38499D01*
X39462Y112652D01*
X40325Y113150D01*
X41031Y113856D01*
X41529Y114719D01*
X41787Y115682D01*
Y116680D01*
X41529Y117643D01*
X41031Y118507D01*
X40325Y119212D01*
X39462Y119710D01*
X38499Y119968D01*
D02*
G37*
G36*
X277459Y109968D02*
X276462D01*
X275499Y109710D01*
X274635Y109212D01*
X273930Y108507D01*
X273431Y107643D01*
X273173Y106680D01*
Y105683D01*
X273431Y104719D01*
X273930Y103856D01*
X274635Y103150D01*
X275499Y102652D01*
X276462Y102394D01*
X277459D01*
X278422Y102652D01*
X279286Y103150D01*
X279991Y103856D01*
X280490Y104719D01*
X280748Y105683D01*
Y106680D01*
X280490Y107643D01*
X279991Y108507D01*
X279286Y109212D01*
X278422Y109710D01*
X277459Y109968D01*
D02*
G37*
G36*
X38499D02*
X37501D01*
X36538Y109710D01*
X35675Y109212D01*
X34969Y108507D01*
X34471Y107643D01*
X34213Y106680D01*
Y105683D01*
X34471Y104719D01*
X34969Y103856D01*
X35675Y103150D01*
X36538Y102652D01*
X37501Y102394D01*
X38499D01*
X39462Y102652D01*
X40325Y103150D01*
X41031Y103856D01*
X41529Y104719D01*
X41787Y105683D01*
Y106680D01*
X41529Y107643D01*
X41031Y108507D01*
X40325Y109212D01*
X39462Y109710D01*
X38499Y109968D01*
D02*
G37*
G36*
X277459Y99968D02*
X276462D01*
X275499Y99710D01*
X274635Y99212D01*
X273930Y98507D01*
X273431Y97643D01*
X273173Y96680D01*
Y95683D01*
X273431Y94719D01*
X273930Y93856D01*
X274635Y93150D01*
X275499Y92652D01*
X276462Y92394D01*
X277459D01*
X278422Y92652D01*
X279286Y93150D01*
X279991Y93856D01*
X280490Y94719D01*
X280748Y95683D01*
Y96680D01*
X280490Y97643D01*
X279991Y98507D01*
X279286Y99212D01*
X278422Y99710D01*
X277459Y99968D01*
D02*
G37*
G36*
X38499D02*
X37501D01*
X36538Y99710D01*
X35675Y99212D01*
X34969Y98507D01*
X34471Y97643D01*
X34213Y96680D01*
Y95683D01*
X34471Y94719D01*
X34969Y93856D01*
X35675Y93150D01*
X36538Y92652D01*
X37501Y92394D01*
X38499D01*
X39462Y92652D01*
X40325Y93150D01*
X41031Y93856D01*
X41529Y94719D01*
X41787Y95683D01*
Y96680D01*
X41529Y97643D01*
X41031Y98507D01*
X40325Y99212D01*
X39462Y99710D01*
X38499Y99968D01*
D02*
G37*
G36*
X277459Y89969D02*
X276462D01*
X275499Y89710D01*
X274635Y89212D01*
X273930Y88507D01*
X273431Y87643D01*
X273173Y86680D01*
Y85682D01*
X273431Y84719D01*
X273930Y83856D01*
X274635Y83150D01*
X275499Y82652D01*
X276462Y82394D01*
X277459D01*
X278422Y82652D01*
X279286Y83150D01*
X279991Y83856D01*
X280490Y84719D01*
X280748Y85682D01*
Y86680D01*
X280490Y87643D01*
X279991Y88507D01*
X279286Y89212D01*
X278422Y89710D01*
X277459Y89969D01*
D02*
G37*
G36*
X38499D02*
X37501D01*
X36538Y89710D01*
X35675Y89212D01*
X34969Y88507D01*
X34471Y87643D01*
X34213Y86680D01*
Y85682D01*
X34471Y84719D01*
X34969Y83856D01*
X35675Y83150D01*
X36538Y82652D01*
X37501Y82394D01*
X38499D01*
X39462Y82652D01*
X40325Y83150D01*
X41031Y83856D01*
X41529Y84719D01*
X41787Y85682D01*
Y86680D01*
X41529Y87643D01*
X41031Y88507D01*
X40325Y89212D01*
X39462Y89710D01*
X38499Y89969D01*
D02*
G37*
G36*
X277459Y79969D02*
X276462D01*
X275499Y79710D01*
X274635Y79212D01*
X273930Y78507D01*
X273431Y77643D01*
X273173Y76680D01*
Y75682D01*
X273431Y74719D01*
X273930Y73856D01*
X274635Y73150D01*
X275499Y72652D01*
X276462Y72394D01*
X277459D01*
X278422Y72652D01*
X279286Y73150D01*
X279991Y73856D01*
X280490Y74719D01*
X280748Y75682D01*
Y76680D01*
X280490Y77643D01*
X279991Y78507D01*
X279286Y79212D01*
X278422Y79710D01*
X277459Y79969D01*
D02*
G37*
G36*
X38499D02*
X37501D01*
X36538Y79710D01*
X35675Y79212D01*
X34969Y78507D01*
X34471Y77643D01*
X34213Y76680D01*
Y75682D01*
X34471Y74719D01*
X34969Y73856D01*
X35675Y73150D01*
X36538Y72652D01*
X37501Y72394D01*
X38499D01*
X39462Y72652D01*
X40325Y73150D01*
X41031Y73856D01*
X41529Y74719D01*
X41787Y75682D01*
Y76680D01*
X41529Y77643D01*
X41031Y78507D01*
X40325Y79212D01*
X39462Y79710D01*
X38499Y79969D01*
D02*
G37*
G36*
X277459Y69968D02*
X276462D01*
X275499Y69710D01*
X274635Y69212D01*
X273930Y68507D01*
X273431Y67643D01*
X273173Y66680D01*
Y65683D01*
X273431Y64719D01*
X273930Y63856D01*
X274635Y63150D01*
X275499Y62652D01*
X276462Y62394D01*
X277459D01*
X278422Y62652D01*
X279286Y63150D01*
X279991Y63856D01*
X280490Y64719D01*
X280748Y65683D01*
Y66680D01*
X280490Y67643D01*
X279991Y68507D01*
X279286Y69212D01*
X278422Y69710D01*
X277459Y69968D01*
D02*
G37*
G36*
X38499D02*
X37501D01*
X36538Y69710D01*
X35675Y69212D01*
X34969Y68507D01*
X34471Y67643D01*
X34213Y66680D01*
Y65683D01*
X34471Y64719D01*
X34969Y63856D01*
X35675Y63150D01*
X36538Y62652D01*
X37501Y62394D01*
X38499D01*
X39462Y62652D01*
X40325Y63150D01*
X41031Y63856D01*
X41529Y64719D01*
X41787Y65683D01*
Y66680D01*
X41529Y67643D01*
X41031Y68507D01*
X40325Y69212D01*
X39462Y69710D01*
X38499Y69968D01*
D02*
G37*
G36*
X277459Y59969D02*
X276462D01*
X275499Y59710D01*
X274635Y59212D01*
X273930Y58507D01*
X273431Y57643D01*
X273173Y56680D01*
Y55682D01*
X273431Y54719D01*
X273930Y53856D01*
X274635Y53150D01*
X275499Y52652D01*
X276462Y52394D01*
X277459D01*
X278422Y52652D01*
X279286Y53150D01*
X279991Y53856D01*
X280490Y54719D01*
X280748Y55682D01*
Y56680D01*
X280490Y57643D01*
X279991Y58507D01*
X279286Y59212D01*
X278422Y59710D01*
X277459Y59969D01*
D02*
G37*
G36*
X38499D02*
X37501D01*
X36538Y59710D01*
X35675Y59212D01*
X34969Y58507D01*
X34471Y57643D01*
X34213Y56680D01*
Y55682D01*
X34471Y54719D01*
X34969Y53856D01*
X35675Y53150D01*
X36538Y52652D01*
X37501Y52394D01*
X38499D01*
X39462Y52652D01*
X40325Y53150D01*
X41031Y53856D01*
X41529Y54719D01*
X41787Y55682D01*
Y56680D01*
X41529Y57643D01*
X41031Y58507D01*
X40325Y59212D01*
X39462Y59710D01*
X38499Y59969D01*
D02*
G37*
G36*
X299949Y23228D02*
X298476D01*
X297031Y22941D01*
X295669Y22377D01*
X294444Y21558D01*
X293402Y20516D01*
X292584Y19291D01*
X292020Y17930D01*
X291732Y16485D01*
Y15011D01*
X292020Y13566D01*
X292584Y12205D01*
X293402Y10980D01*
X294444Y9938D01*
X295669Y9119D01*
X297031Y8555D01*
X298476Y8268D01*
X299949D01*
X301395Y8555D01*
X302756Y9119D01*
X303981Y9938D01*
X305023Y10980D01*
X305842Y12205D01*
X306405Y13566D01*
X306693Y15011D01*
Y16485D01*
X306405Y17930D01*
X305842Y19291D01*
X305023Y20516D01*
X303981Y21558D01*
X302756Y22377D01*
X301395Y22941D01*
X299949Y23228D01*
D02*
G37*
G36*
X16485D02*
X15011D01*
X13566Y22941D01*
X12205Y22377D01*
X10980Y21558D01*
X9938Y20516D01*
X9119Y19291D01*
X8555Y17930D01*
X8268Y16485D01*
Y15011D01*
X8555Y13566D01*
X9119Y12205D01*
X9938Y10980D01*
X10980Y9938D01*
X12205Y9119D01*
X13566Y8555D01*
X15011Y8268D01*
X16485D01*
X17930Y8555D01*
X19291Y9119D01*
X20516Y9938D01*
X21558Y10980D01*
X22377Y12205D01*
X22941Y13566D01*
X23228Y15011D01*
Y16485D01*
X22941Y17930D01*
X22377Y19291D01*
X21558Y20516D01*
X20516Y21558D01*
X19291Y22377D01*
X17930Y22941D01*
X16485Y23228D01*
D02*
G37*
%LPD*%
D18*
X239409Y11811D02*
D03*
X249410D02*
D03*
X229410D02*
D03*
X199724D02*
D03*
X219724D02*
D03*
X209724D02*
D03*
X101614D02*
D03*
X111614D02*
D03*
X91614D02*
D03*
X61929D02*
D03*
X81929D02*
D03*
X71929D02*
D03*
X209724Y452756D02*
D03*
X219724D02*
D03*
X199724D02*
D03*
X229410D02*
D03*
X249410D02*
D03*
X239409D02*
D03*
X71929D02*
D03*
X81929D02*
D03*
X61929D02*
D03*
X91614D02*
D03*
X111614D02*
D03*
X101614D02*
D03*
X38000Y246181D02*
D03*
Y236181D02*
D03*
Y226181D02*
D03*
Y216181D02*
D03*
Y206181D02*
D03*
Y196181D02*
D03*
Y186181D02*
D03*
Y176181D02*
D03*
Y166181D02*
D03*
Y156181D02*
D03*
Y146181D02*
D03*
Y136181D02*
D03*
Y126181D02*
D03*
Y116181D02*
D03*
Y106181D02*
D03*
Y96181D02*
D03*
Y86181D02*
D03*
Y76181D02*
D03*
Y66181D02*
D03*
Y56181D02*
D03*
X48000Y246181D02*
D03*
Y236181D02*
D03*
Y226181D02*
D03*
Y216181D02*
D03*
Y206181D02*
D03*
Y196181D02*
D03*
Y186181D02*
D03*
Y176181D02*
D03*
Y166181D02*
D03*
Y156181D02*
D03*
Y146181D02*
D03*
Y136181D02*
D03*
Y126181D02*
D03*
Y116181D02*
D03*
Y106181D02*
D03*
Y96181D02*
D03*
Y86181D02*
D03*
Y76181D02*
D03*
Y66181D02*
D03*
Y56181D02*
D03*
X38000Y408189D02*
D03*
Y398189D02*
D03*
Y388189D02*
D03*
Y378189D02*
D03*
Y368189D02*
D03*
Y358189D02*
D03*
Y348189D02*
D03*
Y338189D02*
D03*
Y328189D02*
D03*
Y318189D02*
D03*
Y308189D02*
D03*
Y298189D02*
D03*
Y288189D02*
D03*
Y278189D02*
D03*
Y268189D02*
D03*
X48000Y408189D02*
D03*
Y398189D02*
D03*
Y388189D02*
D03*
Y378189D02*
D03*
Y368189D02*
D03*
Y358189D02*
D03*
Y348189D02*
D03*
Y338189D02*
D03*
Y328189D02*
D03*
Y318189D02*
D03*
Y308189D02*
D03*
Y298189D02*
D03*
Y288189D02*
D03*
Y278189D02*
D03*
Y268189D02*
D03*
X276961Y408189D02*
D03*
Y398189D02*
D03*
Y388189D02*
D03*
Y378189D02*
D03*
Y368189D02*
D03*
Y358189D02*
D03*
Y348189D02*
D03*
Y338189D02*
D03*
Y328189D02*
D03*
Y318189D02*
D03*
Y308189D02*
D03*
Y298189D02*
D03*
Y288189D02*
D03*
Y278189D02*
D03*
Y268189D02*
D03*
X266961Y408189D02*
D03*
Y398189D02*
D03*
Y388189D02*
D03*
Y378189D02*
D03*
Y368189D02*
D03*
Y358189D02*
D03*
Y348189D02*
D03*
Y338189D02*
D03*
Y328189D02*
D03*
Y318189D02*
D03*
Y308189D02*
D03*
Y298189D02*
D03*
Y288189D02*
D03*
Y278189D02*
D03*
Y268189D02*
D03*
X276961Y246181D02*
D03*
Y236181D02*
D03*
Y226181D02*
D03*
Y216181D02*
D03*
Y206181D02*
D03*
Y196181D02*
D03*
Y186181D02*
D03*
Y176181D02*
D03*
Y166181D02*
D03*
Y156181D02*
D03*
Y146181D02*
D03*
Y136181D02*
D03*
Y126181D02*
D03*
Y116181D02*
D03*
Y106181D02*
D03*
Y96181D02*
D03*
Y86181D02*
D03*
Y76181D02*
D03*
Y66181D02*
D03*
Y56181D02*
D03*
X266961Y246181D02*
D03*
Y236181D02*
D03*
Y226181D02*
D03*
Y216181D02*
D03*
Y206181D02*
D03*
Y196181D02*
D03*
Y186181D02*
D03*
Y176181D02*
D03*
Y166181D02*
D03*
Y156181D02*
D03*
Y146181D02*
D03*
Y136181D02*
D03*
Y126181D02*
D03*
Y116181D02*
D03*
Y106181D02*
D03*
Y96181D02*
D03*
Y86181D02*
D03*
Y76181D02*
D03*
Y66181D02*
D03*
Y56181D02*
D03*
D19*
X15748Y15748D02*
D03*
X299213D02*
D03*
Y448819D02*
D03*
X15748D02*
D03*
M02*
