G04*
G04 #@! TF.GenerationSoftware,Altium Limited,Altium Designer,25.6.2 (33)*
G04*
G04 Layer_Color=8388736*
%FSLAX25Y25*%
%MOIN*%
G70*
G04*
G04 #@! TF.SameCoordinates,BD411D27-776A-4FB2-9261-914828140578*
G04*
G04*
G04 #@! TF.FilePolarity,Negative*
G04*
G01*
G75*
%ADD14R,0.15288X0.05800*%
%ADD15C,0.06600*%
%ADD16C,0.13005*%
D14*
X226476Y48307D02*
D03*
X245965D02*
D03*
X226476Y38307D02*
D03*
X245965D02*
D03*
X147736Y48307D02*
D03*
X167224D02*
D03*
X147736Y38307D02*
D03*
X167224D02*
D03*
X68996Y48307D02*
D03*
X88484D02*
D03*
X68996Y38307D02*
D03*
X88484D02*
D03*
X226476Y182165D02*
D03*
X245965D02*
D03*
X226476Y172165D02*
D03*
X245965D02*
D03*
X147736Y182165D02*
D03*
X167224D02*
D03*
X147736Y172165D02*
D03*
X167224D02*
D03*
X68996Y182165D02*
D03*
X88484D02*
D03*
X68996Y172165D02*
D03*
X88484D02*
D03*
X226476Y422323D02*
D03*
X245965D02*
D03*
X226476Y412323D02*
D03*
X245965D02*
D03*
X147736Y422323D02*
D03*
X167224D02*
D03*
X147736Y412323D02*
D03*
X167224D02*
D03*
X68996Y422323D02*
D03*
X88484D02*
D03*
X68996Y412323D02*
D03*
X88484D02*
D03*
X245965Y65236D02*
D03*
X226476D02*
D03*
X245965Y75236D02*
D03*
X226476D02*
D03*
X245965Y85236D02*
D03*
X226476D02*
D03*
X245965Y95236D02*
D03*
X226476D02*
D03*
X245965Y105236D02*
D03*
X226476D02*
D03*
X245965Y115236D02*
D03*
X226476D02*
D03*
X245965Y125236D02*
D03*
X226476D02*
D03*
X245965Y135236D02*
D03*
X226476D02*
D03*
X245965Y145236D02*
D03*
X226476D02*
D03*
X245965Y155236D02*
D03*
X226476D02*
D03*
X245965Y199094D02*
D03*
X226476D02*
D03*
X245965Y209095D02*
D03*
X226476D02*
D03*
X245965Y219094D02*
D03*
X226476D02*
D03*
X245965Y229095D02*
D03*
X226476D02*
D03*
X245965Y239094D02*
D03*
X226476D02*
D03*
X245965Y249095D02*
D03*
X226476D02*
D03*
X245965Y259095D02*
D03*
X226476D02*
D03*
X245965Y269094D02*
D03*
X226476D02*
D03*
X245965Y279095D02*
D03*
X226476D02*
D03*
X245965Y289094D02*
D03*
X226476D02*
D03*
X245965Y305394D02*
D03*
X226476D02*
D03*
X245965Y315394D02*
D03*
X226476D02*
D03*
X245965Y325394D02*
D03*
X226476D02*
D03*
X245965Y335394D02*
D03*
X226476D02*
D03*
X245965Y345394D02*
D03*
X226476D02*
D03*
X245965Y355394D02*
D03*
X226476D02*
D03*
X245965Y365394D02*
D03*
X226476D02*
D03*
X245965Y375394D02*
D03*
X226476D02*
D03*
X245965Y385394D02*
D03*
X226476D02*
D03*
X245965Y395394D02*
D03*
X226476D02*
D03*
X167224Y305394D02*
D03*
X147736D02*
D03*
X167224Y315394D02*
D03*
X147736D02*
D03*
X167224Y325394D02*
D03*
X147736D02*
D03*
X167224Y335394D02*
D03*
X147736D02*
D03*
X167224Y345394D02*
D03*
X147736D02*
D03*
X167224Y355394D02*
D03*
X147736D02*
D03*
X167224Y365394D02*
D03*
X147736D02*
D03*
X167224Y375394D02*
D03*
X147736D02*
D03*
X167224Y385394D02*
D03*
X147736D02*
D03*
X167224Y395394D02*
D03*
X147736D02*
D03*
X167224Y199094D02*
D03*
X147736D02*
D03*
X167224Y209095D02*
D03*
X147736D02*
D03*
X167224Y219094D02*
D03*
X147736D02*
D03*
X167224Y229095D02*
D03*
X147736D02*
D03*
X167224Y239094D02*
D03*
X147736D02*
D03*
X167224Y249095D02*
D03*
X147736D02*
D03*
X167224Y259095D02*
D03*
X147736D02*
D03*
X167224Y269094D02*
D03*
X147736D02*
D03*
X167224Y279095D02*
D03*
X147736D02*
D03*
X167224Y289094D02*
D03*
X147736D02*
D03*
X167224Y65236D02*
D03*
X147736D02*
D03*
X167224Y75236D02*
D03*
X147736D02*
D03*
X167224Y85236D02*
D03*
X147736D02*
D03*
X167224Y95236D02*
D03*
X147736D02*
D03*
X167224Y105236D02*
D03*
X147736D02*
D03*
X167224Y115236D02*
D03*
X147736D02*
D03*
X167224Y125236D02*
D03*
X147736D02*
D03*
X167224Y135236D02*
D03*
X147736D02*
D03*
X167224Y145236D02*
D03*
X147736D02*
D03*
X167224Y155236D02*
D03*
X147736D02*
D03*
X88484Y65236D02*
D03*
X68996D02*
D03*
X88484Y75236D02*
D03*
X68996D02*
D03*
X88484Y85236D02*
D03*
X68996D02*
D03*
X88484Y95236D02*
D03*
X68996D02*
D03*
X88484Y105236D02*
D03*
X68996D02*
D03*
X88484Y115236D02*
D03*
X68996D02*
D03*
X88484Y125236D02*
D03*
X68996D02*
D03*
X88484Y135236D02*
D03*
X68996D02*
D03*
X88484Y145236D02*
D03*
X68996D02*
D03*
X88484Y155236D02*
D03*
X68996D02*
D03*
X88484Y199094D02*
D03*
X68996D02*
D03*
X88484Y209095D02*
D03*
X68996D02*
D03*
X88484Y219094D02*
D03*
X68996D02*
D03*
X88484Y229095D02*
D03*
X68996D02*
D03*
X88484Y239094D02*
D03*
X68996D02*
D03*
X88484Y249095D02*
D03*
X68996D02*
D03*
X88484Y259095D02*
D03*
X68996D02*
D03*
X88484Y269094D02*
D03*
X68996D02*
D03*
X88484Y279095D02*
D03*
X68996D02*
D03*
X88484Y289094D02*
D03*
X68996D02*
D03*
X88484Y305394D02*
D03*
X68996D02*
D03*
X88484Y315394D02*
D03*
X68996D02*
D03*
X88484Y325394D02*
D03*
X68996D02*
D03*
X88484Y335394D02*
D03*
X68996D02*
D03*
X88484Y345394D02*
D03*
X68996D02*
D03*
X88484Y355394D02*
D03*
X68996D02*
D03*
X88484Y365394D02*
D03*
X68996D02*
D03*
X88484Y375394D02*
D03*
X68996D02*
D03*
X88484Y385394D02*
D03*
X68996D02*
D03*
X88484Y395394D02*
D03*
X68996D02*
D03*
D15*
X239409Y11811D02*
D03*
X249410D02*
D03*
X229410D02*
D03*
X199724D02*
D03*
X219724D02*
D03*
X209724D02*
D03*
X101614D02*
D03*
X111614D02*
D03*
X91614D02*
D03*
X61929D02*
D03*
X81929D02*
D03*
X71929D02*
D03*
X209724Y452756D02*
D03*
X219724D02*
D03*
X199724D02*
D03*
X229410D02*
D03*
X249410D02*
D03*
X239409D02*
D03*
X71929D02*
D03*
X81929D02*
D03*
X61929D02*
D03*
X91614D02*
D03*
X111614D02*
D03*
X101614D02*
D03*
X38000Y246181D02*
D03*
Y236181D02*
D03*
Y226181D02*
D03*
Y216181D02*
D03*
Y206181D02*
D03*
Y196181D02*
D03*
Y186181D02*
D03*
Y176181D02*
D03*
Y166181D02*
D03*
Y156181D02*
D03*
Y146181D02*
D03*
Y136181D02*
D03*
Y126181D02*
D03*
Y116181D02*
D03*
Y106181D02*
D03*
Y96181D02*
D03*
Y86181D02*
D03*
Y76181D02*
D03*
Y66181D02*
D03*
Y56181D02*
D03*
X48000Y246181D02*
D03*
Y236181D02*
D03*
Y226181D02*
D03*
Y216181D02*
D03*
Y206181D02*
D03*
Y196181D02*
D03*
Y186181D02*
D03*
Y176181D02*
D03*
Y166181D02*
D03*
Y156181D02*
D03*
Y146181D02*
D03*
Y136181D02*
D03*
Y126181D02*
D03*
Y116181D02*
D03*
Y106181D02*
D03*
Y96181D02*
D03*
Y86181D02*
D03*
Y76181D02*
D03*
Y66181D02*
D03*
Y56181D02*
D03*
X38000Y408189D02*
D03*
Y398189D02*
D03*
Y388189D02*
D03*
Y378189D02*
D03*
Y368189D02*
D03*
Y358189D02*
D03*
Y348189D02*
D03*
Y338189D02*
D03*
Y328189D02*
D03*
Y318189D02*
D03*
Y308189D02*
D03*
Y298189D02*
D03*
Y288189D02*
D03*
Y278189D02*
D03*
Y268189D02*
D03*
X48000Y408189D02*
D03*
Y398189D02*
D03*
Y388189D02*
D03*
Y378189D02*
D03*
Y368189D02*
D03*
Y358189D02*
D03*
Y348189D02*
D03*
Y338189D02*
D03*
Y328189D02*
D03*
Y318189D02*
D03*
Y308189D02*
D03*
Y298189D02*
D03*
Y288189D02*
D03*
Y278189D02*
D03*
Y268189D02*
D03*
X276961Y408189D02*
D03*
Y398189D02*
D03*
Y388189D02*
D03*
Y378189D02*
D03*
Y368189D02*
D03*
Y358189D02*
D03*
Y348189D02*
D03*
Y338189D02*
D03*
Y328189D02*
D03*
Y318189D02*
D03*
Y308189D02*
D03*
Y298189D02*
D03*
Y288189D02*
D03*
Y278189D02*
D03*
Y268189D02*
D03*
X266961Y408189D02*
D03*
Y398189D02*
D03*
Y388189D02*
D03*
Y378189D02*
D03*
Y368189D02*
D03*
Y358189D02*
D03*
Y348189D02*
D03*
Y338189D02*
D03*
Y328189D02*
D03*
Y318189D02*
D03*
Y308189D02*
D03*
Y298189D02*
D03*
Y288189D02*
D03*
Y278189D02*
D03*
Y268189D02*
D03*
X276961Y246181D02*
D03*
Y236181D02*
D03*
Y226181D02*
D03*
Y216181D02*
D03*
Y206181D02*
D03*
Y196181D02*
D03*
Y186181D02*
D03*
Y176181D02*
D03*
Y166181D02*
D03*
Y156181D02*
D03*
Y146181D02*
D03*
Y136181D02*
D03*
Y126181D02*
D03*
Y116181D02*
D03*
Y106181D02*
D03*
Y96181D02*
D03*
Y86181D02*
D03*
Y76181D02*
D03*
Y66181D02*
D03*
Y56181D02*
D03*
X266961Y246181D02*
D03*
Y236181D02*
D03*
Y226181D02*
D03*
Y216181D02*
D03*
Y206181D02*
D03*
Y196181D02*
D03*
Y186181D02*
D03*
Y176181D02*
D03*
Y166181D02*
D03*
Y156181D02*
D03*
Y146181D02*
D03*
Y136181D02*
D03*
Y126181D02*
D03*
Y116181D02*
D03*
Y106181D02*
D03*
Y96181D02*
D03*
Y86181D02*
D03*
Y76181D02*
D03*
Y66181D02*
D03*
Y56181D02*
D03*
D16*
X15748Y15748D02*
D03*
X299213D02*
D03*
Y448819D02*
D03*
X15748D02*
D03*
M02*
