M48
;Layer_Color=9474304
;FILE_FORMAT=2:5
INCH,TZ
;TYPE=PLATED
T01F00S00C0.04000
;TYPE=NON_PLATED
T02F00S00C0.13386
%
T01
X38000Y56181
X48000
X61929Y11811
X71929
X81929
X91614
X101614
X111614
X199724
X209724
X219724
X229410
X239409
X249410
X266961Y56181
X276961
Y66181
Y76181
Y86181
Y96181
Y106181
Y116181
Y126181
Y136181
Y146181
Y156181
Y166181
Y176181
Y186181
Y196181
Y206181
X266961
Y196181
Y186181
Y176181
Y166181
Y156181
Y146181
Y136181
Y126181
Y116181
Y106181
Y96181
Y86181
Y76181
Y66181
X48000
X38000
Y76181
Y86181
Y96181
Y106181
Y116181
Y126181
Y136181
Y146181
Y156181
Y166181
Y176181
Y186181
Y196181
Y206181
X48000
Y196181
Y186181
Y176181
Y166181
Y156181
Y146181
Y136181
Y126181
Y116181
Y106181
Y96181
Y86181
Y76181
Y216181
X38000
Y226181
Y236181
Y246181
X48000
Y236181
Y226181
Y268189
X38000
Y278189
Y288189
Y298189
Y308189
Y318189
Y328189
Y338189
Y348189
Y358189
Y368189
X48000
Y358189
Y348189
Y338189
Y328189
Y318189
Y308189
Y298189
Y288189
Y278189
X266961
X276961
Y288189
Y298189
Y308189
Y318189
Y328189
Y338189
Y348189
Y358189
Y368189
X266961
Y358189
Y348189
Y338189
Y328189
Y318189
Y308189
Y298189
Y288189
Y268189
X276961
Y246181
Y236181
Y226181
Y216181
X266961
Y226181
Y236181
Y246181
Y378189
X276961
Y388189
Y398189
Y408189
X266961
Y398189
Y388189
X249410Y452756
X239409
X229410
X219724
X209724
X199724
X111614
X101614
X91614
X81929
X71929
X61929
X48000Y408189
X38000
Y398189
Y388189
Y378189
X48000
Y388189
Y398189
T02
X15748Y15748
X299213
Y448819
X15748
M30
